<svg width="14" height="15" viewBox="0 0 14 15" fill="none" xmlns="http://www.w3.org/2000/svg">
<path fill-rule="evenodd" clip-rule="evenodd" d="M11.5005 1.5H10.7505V0.75V0.75C10.7505 0.335786 10.4147 0 10.0005 0C9.58627 0 9.25049 0.335786 9.25049 0.75V1.5H4.75049V0.75V0.75C4.75049 0.335786 4.4147 0 4.00049 0C3.58627 0 3.25049 0.335786 3.25049 0.75V1.5H2.50049H2.50049C1.25785 1.5 0.250488 2.50736 0.250488 3.75V3.75V12.75V12.75C0.250488 13.9926 1.25785 15 2.50049 15H11.5005V15C12.7431 15 13.7505 13.9926 13.7505 12.75V3.75V3.75C13.7505 2.50736 12.7431 1.5 11.5005 1.5V1.5ZM4.00049 11.25V11.25C3.58627 11.25 3.25049 10.9142 3.25049 10.5C3.25049 10.0858 3.58627 9.75 4.00049 9.75C4.4147 9.75 4.75049 10.0858 4.75049 10.5V10.5C4.75049 10.9142 4.4147 11.25 4.00049 11.25V11.25ZM10.0005 11.25H7.00049V11.25C6.58627 11.25 6.25049 10.9142 6.25049 10.5C6.25049 10.0858 6.58627 9.75 7.00049 9.75H10.0005V9.75C10.4147 9.75 10.7505 10.0858 10.7505 10.5C10.7505 10.9142 10.4147 11.25 10.0005 11.25V11.25ZM12.2505 6.75H1.75049V3.75V3.75C1.75049 3.33579 2.08627 3 2.50049 3H3.25049V3.75V3.75C3.25049 4.16421 3.58627 4.5 4.00049 4.5C4.4147 4.5 4.75049 4.16421 4.75049 3.75V3H9.25049V3.75V3.75C9.25049 4.16421 9.58627 4.5 10.0005 4.5C10.4147 4.5 10.7505 4.16421 10.7505 3.75V3H11.5005V3C11.9147 3 12.2505 3.33579 12.2505 3.75V6.75Z" fill="#84818A"/>
</svg>
