<svg width="18" height="17" viewBox="0 0 18 17" fill="none" xmlns="http://www.w3.org/2000/svg">
<path fill-rule="evenodd" clip-rule="evenodd" d="M1.28447 3.41668C1.28447 1.92091 2.49703 0.708344 3.9928 0.708344C5.48857 0.708344 6.70113 1.92091 6.70113 3.41668C6.70113 4.91245 5.48857 6.12501 3.9928 6.12501C2.49703 6.12501 1.28447 4.91245 1.28447 3.41668ZM3.9928 1.95834C3.18738 1.95834 2.53447 2.61126 2.53447 3.41668C2.53447 4.22209 3.18738 4.87501 3.9928 4.87501C4.79821 4.87501 5.45113 4.22209 5.45113 3.41668C5.45113 2.61126 4.79821 1.95834 3.9928 1.95834Z" fill="#41416E"/>
<path d="M3.99292 8.20834C4.24108 8.20834 4.4827 8.23004 4.71272 8.27248C5.05217 8.33512 5.37812 8.11072 5.44076 7.77127C5.50339 7.43182 5.27899 7.10587 4.93955 7.04323C4.63114 6.98633 4.31345 6.95834 3.99292 6.95834C2.30811 6.95834 0.572593 7.76039 0.105021 9.56799C-0.0226559 10.0616 0.0337393 10.578 0.351116 10.9869C0.706634 11.4451 1.2269 11.5437 1.78287 11.5418C2.64968 11.5389 3.51651 11.5399 4.38334 11.5408C4.80872 11.5412 5.2341 11.5417 5.65947 11.5417C6.00464 11.5417 6.28447 11.2619 6.28447 10.9167C6.28447 10.5715 6.00464 10.2917 5.65947 10.2917H1.8532C1.52129 10.2917 1.21426 10.2712 1.31519 9.88103C1.58609 8.83374 2.62925 8.20834 3.99292 8.20834Z" fill="#41416E"/>
<path fill-rule="evenodd" clip-rule="evenodd" d="M6.29147 8.00001C6.29147 6.50424 7.50403 5.29168 8.99981 5.29168C10.4956 5.29168 11.7081 6.50424 11.7081 8.00001C11.7081 9.49578 10.4956 10.7083 8.99981 10.7083C7.50403 10.7083 6.29147 9.49578 6.29147 8.00001ZM8.99981 6.54168C8.19439 6.54168 7.54147 7.1946 7.54147 8.00001C7.54147 8.80543 8.19439 9.45834 8.99981 9.45834C9.80522 9.45834 10.4581 8.80543 10.4581 8.00001C10.4581 7.1946 9.80522 6.54168 8.99981 6.54168Z" fill="#41416E"/>
<path fill-rule="evenodd" clip-rule="evenodd" d="M5.1118 14.1513C5.57938 12.3437 7.31486 11.5417 8.99969 11.5417C10.6845 11.5417 12.42 12.3437 12.8876 14.1513C13.0153 14.6449 12.9589 15.1613 12.6415 15.5703C12.286 16.0284 11.7657 16.127 11.2097 16.1252C9.73643 16.1203 8.26296 16.1203 6.78966 16.1252C6.45786 16.1263 6.09022 16.1275 5.73552 15.9147C5.12696 15.5497 4.94229 14.8066 5.1118 14.1513ZM8.99969 12.7917C7.63601 12.7917 6.59287 13.4171 6.32197 14.4644C6.21518 14.8772 6.50894 14.8762 6.81373 14.8751L6.85998 14.875H11.1394L11.1855 14.8751C11.4901 14.8762 11.7842 14.8772 11.6774 14.4644C11.4065 13.4171 10.3634 12.7917 8.99969 12.7917Z" fill="#41416E"/>
<path fill-rule="evenodd" clip-rule="evenodd" d="M14.0069 0.708344C15.5026 0.708344 16.7152 1.92091 16.7152 3.41668C16.7152 4.91245 15.5026 6.12501 14.0069 6.12501C12.5111 6.12501 11.2985 4.91245 11.2985 3.41668C11.2985 1.92091 12.5111 0.708344 14.0069 0.708344ZM15.4652 3.41668C15.4652 2.61126 14.8123 1.95834 14.0069 1.95834C13.2015 1.95834 12.5485 2.61126 12.5485 3.41668C12.5485 4.22209 13.2015 4.87501 14.0069 4.87501C14.8123 4.87501 15.4652 4.22209 15.4652 3.41668Z" fill="#41416E"/>
<path d="M13.287 8.27248C13.517 8.23004 13.7586 8.20834 14.0068 8.20834C15.3704 8.20834 16.4136 8.83374 16.6845 9.88103C16.7854 10.2712 16.4784 10.2917 16.1465 10.2917H12.3402C11.995 10.2917 11.7152 10.5715 11.7152 10.9167C11.7152 11.2619 11.995 11.5417 12.3402 11.5417C12.7656 11.5417 13.191 11.5412 13.6163 11.5408C14.4832 11.5399 15.35 11.5389 16.2168 11.5418C16.7728 11.5437 17.293 11.4451 17.6486 10.9869C17.9659 10.578 18.0223 10.0616 17.8947 9.56799C17.4271 7.76039 15.6916 6.95834 14.0068 6.95834C13.6862 6.95834 13.3685 6.98633 13.0601 7.04323C12.7207 7.10587 12.4963 7.43182 12.5589 7.77127C12.6216 8.11072 12.9475 8.33512 13.287 8.27248Z" fill="#41416E"/>
</svg>
