<svg width="24" height="25" viewBox="0 0 24 25" fill="none" xmlns="http://www.w3.org/2000/svg">
<path d="M12.0005 23C13.1005 23 14.0005 22.1 14.0005 21H10.0005C10.0005 22.1 10.8905 23 12.0005 23ZM18.0005 17V12C18.0005 8.93 16.3605 6.36 13.5005 5.68V5C13.5005 4.17 12.8305 3.5 12.0005 3.5C11.1705 3.5 10.5005 4.17 10.5005 5V5.68C7.63049 6.36 6.00049 8.92 6.00049 12V17L4.00049 19V20H20.0005V19L18.0005 17Z" fill="#040035"/>
<g clip-path="url(#clip0_67_3887)">
<rect x="16.0005" width="8" height="8" rx="4" fill="#FC3400"/>
</g>
<defs>
<clipPath id="clip0_67_3887">
<rect width="8" height="8" fill="white" transform="translate(16.0005)"/>
</clipPath>
</defs>
</svg>
