<svg width="22" height="20" viewBox="0 0 22 20" fill="none" xmlns="http://www.w3.org/2000/svg">
<path fill-rule="evenodd" clip-rule="evenodd" d="M10.8574 0.00683402C10.3861 0.0553359 9.96764 0.341645 9.75377 0.771729L8.89918 2.49498L6.99171 2.77232C6.47159 2.84434 6.03293 3.2112 5.86808 3.7164L5.83058 3.85524C5.7303 4.32098 5.8758 4.81016 6.22314 5.14594L7.60018 6.48298L7.27467 8.37534C7.18928 8.90565 7.40581 9.42793 7.83249 9.73593L7.96438 9.8203C8.37098 10.0493 8.86975 10.0607 9.28986 9.84202L11.0002 8.94497L12.7081 9.84076C13.1722 10.0869 13.7413 10.0471 14.1707 9.73585L14.2824 9.64575C14.6366 9.32858 14.8067 8.84867 14.7246 8.37361L14.3992 6.48298L15.779 5.14421C16.1595 4.77251 16.2952 4.21987 16.1311 3.7168L16.0797 3.58311C15.887 3.14955 15.4837 2.84066 15.0076 2.77216L13.1002 2.49498L12.2473 0.773197C12.0113 0.298637 11.5285 -0.000488281 11.0002 -0.000488281L10.8574 0.00683402ZM11.0002 2.76198L11.541 3.85375L11.6019 3.95986C11.758 4.19694 12.009 4.35836 12.2937 4.39963L13.4952 4.57298L12.6284 5.41674L12.5457 5.50748C12.3674 5.72937 12.2908 6.01886 12.3396 6.30328L12.5442 7.49698L11.4643 6.93119L11.3529 6.88122C11.0878 6.78128 10.7904 6.79794 10.5361 6.93119L9.45518 7.49698L9.66069 6.30361L9.67406 6.18158C9.68764 5.8971 9.57907 5.6179 9.37201 5.41674L8.50418 4.57298L9.70666 4.39963C10.032 4.35246 10.3134 4.14837 10.4593 3.85375L11.0002 2.76198ZM3.95377 10.7717C4.16763 10.3416 4.58609 10.0553 5.05737 10.0068L5.20018 9.99951C5.72854 9.99951 6.21134 10.2986 6.44732 10.7732L7.30018 12.495L9.20757 12.7722C9.68374 12.8407 10.087 13.1496 10.2797 13.5831L10.3311 13.7168C10.4952 14.2199 10.3595 14.7725 9.97901 15.1442L8.59918 16.483L8.92456 18.3736C9.0067 18.8487 8.83659 19.3286 8.48239 19.6457L8.37067 19.7358C7.9413 20.0471 7.37224 20.0869 6.90808 19.8408L5.20018 18.945L3.48986 19.842C3.06975 20.0607 2.57098 20.0493 2.16438 19.8203L2.03249 19.7359C1.60581 19.4279 1.38928 18.9057 1.47467 18.3753L1.80018 16.483L0.423139 15.1459C0.0758007 14.8102 -0.0696953 14.321 0.0305793 13.8552L0.0680787 13.7164C0.232933 13.2112 0.671588 12.8443 1.19171 12.7723L3.09918 12.495L3.95377 10.7717ZM5.74104 13.8538L5.20018 12.762L4.65932 13.8538C4.51342 14.1484 4.23202 14.3525 3.90666 14.3996L2.70418 14.573L3.57201 15.4167C3.77907 15.6179 3.88764 15.8971 3.87406 16.1816L3.86069 16.3036L3.65518 17.497L4.73608 16.9312C4.99041 16.7979 5.28778 16.7813 5.55287 16.8812L5.66428 16.9312L6.74418 17.497L6.53962 16.3033C6.49076 16.0189 6.56736 15.7294 6.74574 15.5075L6.82835 15.4167L7.69518 14.573L6.49371 14.3996C6.20901 14.3584 5.95798 14.1969 5.80193 13.9599L5.74104 13.8538ZM15.5538 10.7717C15.7676 10.3416 16.1861 10.0553 16.6574 10.0068L16.8002 9.99951C17.3285 9.99951 17.8113 10.2986 18.0473 10.7732L18.9002 12.495L20.8076 12.7722C21.2837 12.8407 21.687 13.1496 21.8797 13.5831L21.9311 13.7168C22.0952 14.2199 21.9595 14.7725 21.579 15.1442L20.1992 16.483L20.5246 18.3736C20.6067 18.8487 20.4366 19.3286 20.0824 19.6457L19.9707 19.7358C19.5413 20.0471 18.9722 20.0869 18.5081 19.8408L16.8002 18.945L15.0899 19.842C14.6698 20.0607 14.171 20.0493 13.7644 19.8203L13.6325 19.7359C13.2058 19.4279 12.9893 18.9057 13.0747 18.3753L13.4002 16.483L12.0231 15.1459C11.6758 14.8102 11.5303 14.321 11.6306 13.8552L11.6681 13.7164C11.8329 13.2112 12.2716 12.8443 12.7917 12.7723L14.6992 12.495L15.5538 10.7717ZM17.341 13.8538L16.8002 12.762L16.2593 13.8538C16.1134 14.1484 15.832 14.3525 15.5067 14.3996L14.3042 14.573L15.172 15.4167C15.3791 15.6179 15.4876 15.8971 15.4741 16.1816L15.4607 16.3036L15.2552 17.497L16.3361 16.9312C16.5904 16.7979 16.8878 16.7813 17.1529 16.8812L17.2643 16.9312L18.3442 17.497L18.1396 16.3033C18.0908 16.0189 18.1674 15.7294 18.3457 15.5075L18.4284 15.4167L19.2952 14.573L18.0937 14.3996C17.809 14.3584 17.558 14.1969 17.4019 13.9599L17.341 13.8538Z" fill="#5C5F62"/>
</svg>
