<svg width="135" height="57" viewBox="0 0 135 57" fill="none" xmlns="http://www.w3.org/2000/svg">
<path d="M54.9521 37.754V18.9619H58.356V34.901H66.6335V37.754H54.9521Z" fill="white"/>
<path d="M71.9351 38.0378C71.1082 38.0503 70.2881 37.8863 69.5296 37.5567C68.8422 37.2539 68.2574 36.7584 67.8457 36.1302C67.4149 35.4309 67.1998 34.6201 67.2275 33.7992C67.2015 33.1148 67.3532 32.4352 67.6677 31.8267C67.954 31.3136 68.3684 30.8835 68.8704 30.5782C69.4038 30.2518 69.9838 30.0085 70.5904 29.8566C71.2435 29.6923 71.9075 29.575 72.5774 29.5053C73.4017 29.4187 74.0712 29.3386 74.586 29.2648C74.9789 29.2321 75.3611 29.12 75.7094 28.9352C75.8259 28.8606 75.9201 28.756 75.9823 28.6324C76.0445 28.5088 76.0724 28.3708 76.063 28.2328V28.1775C76.081 27.8818 76.0356 27.5856 75.9298 27.3089C75.824 27.0322 75.6603 26.7813 75.4496 26.573C75.0383 26.1929 74.4489 26.0029 73.6767 26.0029C72.9947 25.9677 72.3196 26.1542 71.7523 26.5345C71.3097 26.8449 70.9737 27.2842 70.7901 27.7926L67.6869 27.3524C67.9003 26.5414 68.3138 25.797 68.8897 25.1874C69.4683 24.6005 70.1746 24.1551 70.9536 23.886C71.8215 23.5863 72.7346 23.439 73.6527 23.4506C74.3357 23.4519 75.0162 23.5326 75.6805 23.6911C76.3357 23.8432 76.9593 24.1086 77.5232 24.4753C78.0889 24.8483 78.5515 25.3579 78.8679 25.9572C79.2309 26.6824 79.4063 27.4872 79.3779 28.2978V37.7299H76.1833V35.7934H76.075C75.6066 36.6921 74.8149 37.3798 73.8595 37.7179C73.2426 37.9396 72.5906 38.048 71.9351 38.0378ZM72.7891 35.5986C73.3915 35.6124 73.9878 35.4751 74.5235 35.1993C74.9893 34.9534 75.3806 34.5871 75.6565 34.1384C75.9216 33.704 76.0599 33.204 76.0558 32.6951V31.0353C75.8963 31.1468 75.7177 31.2283 75.529 31.2758C75.2551 31.3543 74.9772 31.4185 74.6967 31.4683C74.3912 31.5236 74.0881 31.5717 73.7898 31.615L73.0104 31.7256C72.5548 31.7833 72.1076 31.8939 71.6777 32.0552C71.3201 32.186 71.0014 32.4053 70.7516 32.6927C70.4831 33.0635 70.3675 33.5234 70.4289 33.977C70.4902 34.4307 70.7238 34.8433 71.0811 35.1295C71.588 35.4592 72.1849 35.6231 72.7891 35.5986Z" fill="white"/>
<path d="M84.4998 29.4958V37.754H81.1777V18.9619H84.4252V26.0535H84.5912C84.9008 25.2843 85.4369 24.6274 86.1283 24.1699C86.8211 23.7081 87.7032 23.4771 88.7744 23.4771C89.6664 23.4557 90.5486 23.6671 91.3339 24.0905C92.0631 24.5077 92.6498 25.1347 93.0178 25.8899C93.4422 26.7915 93.6483 27.7804 93.6192 28.7765V37.7516H90.3164V29.2937C90.3164 28.3459 90.0758 27.6074 89.5947 27.0782C89.1136 26.549 88.4329 26.2844 87.5524 26.2844C87.0042 26.2753 86.4628 26.4061 85.9792 26.6645C85.5195 26.9172 85.1434 27.2984 84.8967 27.7614C84.6206 28.2969 84.4841 28.8935 84.4998 29.4958Z" fill="white"/>
<path d="M100.694 38.0018C99.6415 38.021 98.6069 37.728 97.7207 37.1599C96.8089 36.5468 96.0899 35.6876 95.6471 34.6821C95.1404 33.5996 94.887 32.2846 94.887 30.737C94.887 29.1895 95.1452 27.8664 95.6616 26.7679C96.1102 25.7666 96.8386 24.9162 97.7592 24.3191C98.6365 23.763 99.6552 23.4707 100.694 23.4771C101.397 23.45 102.096 23.5928 102.731 23.8933C103.218 24.1351 103.649 24.476 103.997 24.894C104.275 25.2332 104.517 25.6009 104.718 25.9909H104.856V18.9619H108.199V37.754H104.933V35.5337H104.733C104.527 35.9233 104.278 36.2881 103.99 36.621C103.631 37.0291 103.194 37.3612 102.705 37.5977C102.075 37.8875 101.387 38.0259 100.694 38.0018ZM101.62 35.2763C102.267 35.295 102.902 35.0932 103.419 34.7038C103.939 34.287 104.33 33.7315 104.548 33.1017C104.82 32.3295 104.95 31.5146 104.933 30.6962C104.95 29.8875 104.821 29.0823 104.552 28.3195C104.338 27.7002 103.949 27.1557 103.434 26.7511C102.893 26.3828 102.252 26.1874 101.598 26.1908C100.943 26.1943 100.305 26.3963 99.7678 26.7703C99.2511 27.1849 98.8631 27.7381 98.6492 28.3652C98.3858 29.1135 98.2579 29.9029 98.2716 30.6962C98.2586 31.4974 98.3872 32.2947 98.6516 33.0512C98.8699 33.6872 99.2615 34.2496 99.7823 34.6749C100.307 35.082 100.956 35.2945 101.62 35.2763Z" fill="white"/>
<path d="M114.256 38.0378C113.429 38.0503 112.609 37.8863 111.851 37.5567C111.164 37.2539 110.579 36.7584 110.167 36.1302C109.735 35.4314 109.52 34.6203 109.549 33.7992C109.523 33.1148 109.674 32.4352 109.989 31.8267C110.276 31.314 110.69 30.8839 111.192 30.5782C111.726 30.2518 112.307 30.0084 112.914 29.8566C113.566 29.6926 114.23 29.5752 114.899 29.5053C115.726 29.4187 116.395 29.3394 116.91 29.2648C117.303 29.2318 117.685 29.1197 118.033 28.9352C118.15 28.8606 118.244 28.756 118.306 28.6324C118.368 28.5088 118.396 28.3708 118.387 28.2328V28.1775C118.405 27.8815 118.359 27.5851 118.253 27.3083C118.147 27.0315 117.982 26.7808 117.771 26.573C117.362 26.1929 116.772 26.0029 116 26.0029C115.318 25.9677 114.643 26.1542 114.076 26.5345C113.633 26.8449 113.297 27.2842 113.114 27.7926L110.011 27.3524C110.224 26.5414 110.638 25.797 111.213 25.1874C111.792 24.6005 112.498 24.1551 113.277 23.886C114.145 23.5863 115.058 23.439 115.976 23.4506C116.659 23.4519 117.34 23.5326 118.004 23.6911C118.659 23.8432 119.283 24.1086 119.847 24.4753C120.413 24.8483 120.875 25.3579 121.192 25.9572C121.555 26.6824 121.73 27.4872 121.702 28.2978V37.7299H118.495V35.7934H118.387C117.918 36.6929 117.125 37.3807 116.169 37.7179C115.556 37.9385 114.908 38.0469 114.256 38.0378ZM115.127 35.5986C115.73 35.6124 116.326 35.4751 116.862 35.1993C117.327 34.9534 117.719 34.5871 117.995 34.1384C118.259 33.7035 118.397 33.2039 118.394 32.6951V31.0353C118.233 31.1462 118.054 31.2277 117.865 31.2758C117.592 31.3543 117.315 31.4185 117.035 31.4683C116.729 31.5236 116.426 31.5717 116.128 31.615L115.346 31.7256C114.891 31.7833 114.445 31.8939 114.016 32.0552C113.658 32.1853 113.339 32.4047 113.09 32.6927C112.821 33.0635 112.706 33.5234 112.767 33.977C112.828 34.4307 113.062 34.8433 113.419 35.1295C113.926 35.4595 114.523 35.6234 115.127 35.5986Z" fill="white"/>
<path d="M127.554 38.0378C126.727 38.0502 125.907 37.8861 125.148 37.5567C124.461 37.2538 123.876 36.7583 123.464 36.1302C123.034 35.4309 122.818 34.6201 122.846 33.7992C122.82 33.1147 122.972 32.4352 123.286 31.8266C123.573 31.3141 123.988 30.8841 124.489 30.5782C125.022 30.2517 125.602 30.0084 126.209 29.8565C126.862 29.6925 127.526 29.5751 128.196 29.5053C129.02 29.4187 129.69 29.3385 130.205 29.2647C130.598 29.2321 130.98 29.12 131.328 28.9352C131.445 28.8605 131.539 28.7559 131.601 28.6324C131.663 28.5088 131.691 28.3708 131.682 28.2328V28.1774C131.7 27.8817 131.654 27.5856 131.548 27.3088C131.443 27.0321 131.279 26.7812 131.068 26.5729C130.657 26.1929 130.068 26.0028 129.295 26.0028C128.613 25.9671 127.938 26.1537 127.371 26.5344C126.929 26.845 126.593 27.2843 126.409 27.7925L123.306 27.3668C123.518 26.5553 123.931 25.8106 124.508 25.2018C125.087 24.6149 125.793 24.1695 126.572 23.9004C127.44 23.6009 128.353 23.4536 129.271 23.465C129.954 23.4663 130.635 23.547 131.299 23.7055C131.955 23.8573 132.58 24.1227 133.144 24.4897C133.709 24.8634 134.17 25.373 134.487 25.9715C134.851 26.6963 135.027 27.5014 134.997 28.3121V37.7443H131.804V35.8078H131.694C131.225 36.7065 130.434 37.3942 129.478 37.7323C128.86 37.9492 128.208 38.0527 127.554 38.0378ZM128.415 35.5985C129.017 35.6129 129.614 35.4756 130.149 35.1992C130.616 34.9541 131.007 34.5876 131.282 34.1384C131.548 33.7039 131.686 33.204 131.682 32.695V31.0352C131.522 31.1467 131.344 31.2283 131.155 31.2758C130.882 31.3542 130.605 31.4185 130.325 31.4682C130.017 31.5235 129.714 31.5717 129.416 31.615L128.636 31.7256C128.181 31.783 127.735 31.8936 127.306 32.0552C126.947 32.1853 126.628 32.4047 126.377 32.6926C126.109 33.0635 125.993 33.5237 126.055 33.9776C126.117 34.4314 126.351 34.844 126.709 35.1295C127.215 35.4595 127.811 35.6235 128.415 35.5985Z" fill="white"/>
<path d="M33.7546 5.53418H12.1769C5.45177 5.53418 0 10.9859 0 17.711V39.2888C0 46.0139 5.45177 51.4656 12.1769 51.4656H33.7546C40.4797 51.4656 45.9315 46.0139 45.9315 39.2888V17.711C45.9315 10.9859 40.4797 5.53418 33.7546 5.53418Z" fill="white"/>
<path d="M15.2463 39.1179C14.4656 39.1007 13.6978 38.9162 12.9947 38.5766C9.43208 36.9673 9.85065 30.1572 12.0541 24.5836C13.9786 19.7027 16.7257 17.1986 19.2178 18.0453C20.7309 18.5601 21.4911 19.7941 21.4766 21.7138C21.4646 23.222 20.9955 24.9877 20.5144 26.8592C19.7374 29.8325 18.9364 32.8971 20.1536 34.4607C22.0761 32.865 24.2161 31.5512 26.509 30.5589C28.9988 29.4837 32.3521 28.9424 34.2284 30.1548C34.6488 30.4203 34.9936 30.7899 35.2292 31.2278C35.4647 31.6657 35.5832 32.157 35.5731 32.6542C35.5948 34.0975 34.2862 36.3852 31.8205 37.7491C29.896 38.81 25.8692 40.0272 20.168 36.4525L19.9804 36.6113C18.3879 37.968 17.036 39.1179 15.2463 39.1179ZM18.2412 19.4213C16.7281 19.4213 14.8734 21.6127 13.483 25.1489C11.5466 30.0514 11.1424 36.0556 13.6273 37.1766C15.7923 38.1532 16.7906 37.3089 18.9701 35.4542C17.2381 33.3253 18.1834 29.7098 19.0278 26.4695C20.0526 22.5461 20.5433 20.1189 18.7223 19.4934C18.5669 19.4432 18.4044 19.4188 18.2412 19.4213ZM21.4165 35.4133C25.0032 37.5254 28.4094 37.8814 31.0772 36.4068C33.028 35.3267 34.0504 33.5466 34.036 32.6782C34.0493 32.4342 33.9967 32.1911 33.8837 31.9743C33.7707 31.7576 33.6014 31.5753 33.3937 31.4466C32.2198 30.6864 29.5809 30.9077 27.1176 31.971C25.0683 32.8514 23.1499 34.0098 21.4165 35.4133Z" fill="#5C4FFF"/>
</svg>
