<svg width="25" height="24" viewBox="0 0 25 24" fill="none" xmlns="http://www.w3.org/2000/svg">
<g clip-path="url(#clip0_132_42566)">
<path opacity="0.4" d="M12.5 1.25C6.56294 1.25 1.75 6.06294 1.75 12C1.75 17.9371 6.56294 22.75 12.5 22.75C18.4371 22.75 23.25 17.9371 23.25 12C23.25 6.06294 18.4371 1.25 12.5 1.25Z" fill="#F9F9F9"/>
<path d="M13.4697 14.9697C13.1768 15.2626 13.1768 15.7374 13.4697 16.0303C13.7626 16.3232 14.2374 16.3232 14.5303 16.0303L18.0303 12.5303C18.3232 12.2374 18.3232 11.7626 18.0303 11.4697L14.5303 7.96967C14.2374 7.67678 13.7626 7.67678 13.4697 7.96967C13.1768 8.26256 13.1768 8.73744 13.4697 9.03033L15.6893 11.25L7.5 11.25C7.08579 11.25 6.75 11.5858 6.75 12C6.75 12.4142 7.08579 12.75 7.5 12.75L15.6893 12.75L13.4697 14.9697Z" fill="#F2F2F2"/>
</g>
<defs>
<clipPath id="clip0_132_42566">
<rect width="24" height="24" fill="white" transform="translate(0.5)"/>
</clipPath>
</defs>
</svg>
