<svg width="16" height="11" viewBox="0 0 16 11" fill="none" xmlns="http://www.w3.org/2000/svg">
<path fill-rule="evenodd" clip-rule="evenodd" d="M0.298971 6.2166C-0.0986648 5.82719 -0.0979918 5.19 0.291049 4.80144V4.79146L4.28812 0.799404C4.67784 0.400199 5.30737 0.400199 5.70708 0.799404C6.0968 1.18863 6.0968 1.81738 5.70708 2.21659L3.40874 4.51204H15.0007C15.5503 4.51204 16 4.95117 16 5.51005C16 6.05896 15.5503 6.50807 15.0007 6.50807H3.42872L5.71592 8.7924C6.10563 9.17164 6.10563 9.81037 5.71592 10.1996H5.70592C5.51606 10.3792 5.25625 10.489 4.99644 10.489L5.00743 10.5C4.73763 10.5 4.47782 10.3902 4.29795 10.2106L0.300882 6.21852C0.300244 6.21788 0.299607 6.21724 0.298971 6.2166Z" fill="#5C4FFF"/>
</svg>
