<svg width="18" height="16" viewBox="0 0 18 16" fill="none" xmlns="http://www.w3.org/2000/svg">
<path d="M14.8333 5.49999C15.0635 5.49999 15.25 5.68654 15.25 5.91666C15.25 6.14678 15.0635 6.33333 14.8333 6.33333L11.5 6.33333C11.2699 6.33333 11.0833 6.14678 11.0833 5.91666C11.0833 5.68654 11.2699 5.49999 11.5 5.49999L14.8333 5.49999Z" fill="#5C5F62"/>
<path d="M15.25 8.83333C15.25 8.60321 15.0635 8.41666 14.8333 8.41666H11.5C11.2699 8.41666 11.0833 8.60321 11.0833 8.83333C11.0833 9.06345 11.2699 9.24999 11.5 9.24999H14.8333C15.0635 9.24999 15.25 9.06345 15.25 8.83333Z" fill="#5C5F62"/>
<path d="M14.8333 11.3333C15.0635 11.3333 15.25 11.5199 15.25 11.75C15.25 11.9801 15.0635 12.1667 14.8333 12.1667H11.5C11.2699 12.1667 11.0833 11.9801 11.0833 11.75C11.0833 11.5199 11.2699 11.3333 11.5 11.3333H14.8333Z" fill="#5C5F62"/>
<path fill-rule="evenodd" clip-rule="evenodd" d="M3.16667 0.0833282C2.93655 0.0833282 2.75 0.269876 2.75 0.499995V1.74999C1.36929 1.74999 0.25 2.86928 0.25 4.25V13.4167C0.25 14.7974 1.36929 15.9167 2.75 15.9167L15.25 15.9167C16.6307 15.9167 17.75 14.7974 17.75 13.4167L17.75 4.24999C17.75 2.86928 16.6307 1.74999 15.25 1.74999H8.97073C8.39438 0.753659 7.31714 0.0833282 6.08333 0.0833282H3.16667ZM9.31165 2.58333C9.38021 2.84968 9.41667 3.12891 9.41667 3.41666V15.0833L15.25 15.0833C16.1705 15.0833 16.9167 14.3371 16.9167 13.4167L16.9167 4.24999C16.9167 3.32952 16.1705 2.58333 15.25 2.58333L9.31165 2.58333ZM8.54166 15.0833C8.34863 14.1324 7.5079 13.4167 6.5 13.4167H3.16667C2.93655 13.4167 2.75 13.2301 2.75 13V2.58333C1.82952 2.58333 1.08333 3.32952 1.08333 4.25L1.08333 13.4167C1.08333 14.3371 1.82953 15.0833 2.75 15.0833H8.54166ZM8.58333 3.41666V13.4588C8.05395 12.9185 7.31612 12.5833 6.5 12.5833H3.58333V0.916662H6.08333C7.46405 0.916662 8.58333 2.03595 8.58333 3.41666Z" fill="#5C5F62"/>
</svg>
