<svg width="18" height="18" viewBox="0 0 18 18" fill="none" xmlns="http://www.w3.org/2000/svg">
<path fill-rule="evenodd" clip-rule="evenodd" d="M10.4686 1.53569C9.58116 0.936659 8.41884 0.936658 7.53139 1.53569L2.55176 4.89693C1.63362 5.51668 1.08333 6.55204 1.08333 7.65976V14.8333C1.08333 15.9839 2.01607 16.9167 3.16667 16.9167H5.66667C5.89679 16.9167 6.08333 16.7301 6.08333 16.5V12.75C6.08333 11.8295 6.82953 11.0833 7.75 11.0833H10.25C11.1705 11.0833 11.9167 11.8295 11.9167 12.75V16.5C11.9167 16.7301 12.1032 16.9167 12.3333 16.9167H14.8333C15.9839 16.9167 16.9167 15.9839 16.9167 14.8333V7.65976C16.9167 6.55204 16.3664 5.51668 15.4482 4.89694L10.4686 1.53569ZM7.06516 0.84498C8.23434 0.0557822 9.76566 0.0557838 10.9348 0.844981L15.9145 4.20623C17.0621 4.98091 17.75 6.27511 17.75 7.65976V14.8333C17.75 16.4442 16.4442 17.75 14.8333 17.75H12.3333C11.643 17.75 11.0833 17.1904 11.0833 16.5V12.75C11.0833 12.2898 10.7102 11.9167 10.25 11.9167H7.75C7.28976 11.9167 6.91667 12.2898 6.91667 12.75V16.5C6.91667 17.1904 6.35702 17.75 5.66667 17.75H3.16667C1.55584 17.75 0.25 16.4442 0.25 14.8333V7.65976C0.25 6.27511 0.937859 4.98091 2.08553 4.20623L7.06516 0.84498Z" fill="#030014"/>
</svg>
