<svg width="16" height="18" viewBox="0 0 16 18" fill="none" xmlns="http://www.w3.org/2000/svg">
<path fill-rule="evenodd" clip-rule="evenodd" d="M13.8335 5.21523C14.3283 5.13204 14.8028 4.89955 15.1846 4.51777C16.1609 3.54146 16.1609 1.95854 15.1846 0.982233C14.2083 0.00592226 12.6254 0.00592246 11.6491 0.982233C10.6728 1.95854 10.6728 3.54146 11.6491 4.51777C12.0308 4.89955 12.5054 5.13204 13.0002 5.21523V6.5C13.0002 7.88071 11.8809 9 10.5002 9H5.50016C4.50459 9 3.61095 9.43646 3.00016 10.1285V5.21523C3.49492 5.13204 3.96947 4.89955 4.35126 4.51777C5.32757 3.54146 5.32757 1.95854 4.35126 0.982233C3.37495 0.00592226 1.79204 0.00592246 0.815729 0.982233C-0.160582 1.95854 -0.160581 3.54146 0.815729 4.51777C1.19752 4.89955 1.67207 5.13204 2.16683 5.21523V12.7848C1.67207 12.868 1.19752 13.1004 0.815729 13.4822C-0.160582 14.4585 -0.160581 16.0415 0.815729 17.0178C1.79204 17.9941 3.37495 17.9941 4.35126 17.0178C5.32757 16.0415 5.32757 14.4585 4.35126 13.4822C3.96947 13.1004 3.49493 12.868 3.00016 12.7848V12.3333C3.00016 10.9526 4.11945 9.83333 5.50016 9.83333H10.5002C12.3411 9.83333 13.8335 8.34095 13.8335 6.5V5.21523ZM12.2383 1.57149C11.5874 2.22236 11.5874 3.27764 12.2383 3.92851C12.5638 4.25401 12.9905 4.41673 13.4171 4.41667C13.8435 4.4166 14.27 4.25388 14.5953 3.92851C15.2462 3.27764 15.2462 2.22236 14.5953 1.57149C13.9445 0.920615 12.8892 0.920615 12.2383 1.57149ZM1.40498 1.57149C0.754111 2.22236 0.754111 3.27764 1.40498 3.92851C1.73036 4.25388 2.15679 4.4166 2.58324 4.41667C3.00986 4.41673 3.4365 4.25401 3.76201 3.92851C4.41288 3.27764 4.41288 2.22236 3.76201 1.57149C3.11113 0.920615 2.05586 0.920615 1.40498 1.57149ZM1.40498 16.4285C0.754111 15.7776 0.754111 14.7224 1.40498 14.0715C2.05586 13.4206 3.11113 13.4206 3.76201 14.0715C4.41288 14.7224 4.41288 15.7776 3.76201 16.4285C3.11113 17.0794 2.05586 17.0794 1.40498 16.4285Z" fill="#5C5F62"/>
</svg>
