<svg width="18" height="19" viewBox="0 0 18 19" fill="none" xmlns="http://www.w3.org/2000/svg">
<path fill-rule="evenodd" clip-rule="evenodd" d="M17.7105 16.79L14.3105 13.4C15.4075 12.0024 16.0027 10.2767 16.0005 8.5C16.0005 4.08172 12.4188 0.5 8.00049 0.5C3.58221 0.5 0.000488281 4.08172 0.000488281 8.5C0.000488281 12.9183 3.58221 16.5 8.00049 16.5C9.77715 16.5022 11.5029 15.907 12.9005 14.81L16.2905 18.21C16.6794 18.6021 17.3126 18.6047 17.7047 18.2158C17.7066 18.2139 17.7086 18.2119 17.7105 18.21V18.21C18.1026 17.8211 18.1052 17.1879 17.7163 16.7958C17.7144 16.7939 17.7124 16.7919 17.7105 16.79L17.7105 16.79ZM2.00049 8.5V8.5C2.00049 5.18629 4.68678 2.5 8.00049 2.5C11.3142 2.5 14.0005 5.18629 14.0005 8.5C14.0005 11.8137 11.3142 14.5 8.00049 14.5C4.68678 14.5 2.00049 11.8137 2.00049 8.5L2.00049 8.5Z" fill="#C8C8C9"/>
</svg>
