<svg width="18" height="18" viewBox="0 0 18 18" fill="none" xmlns="http://www.w3.org/2000/svg">
<path d="M11.0833 3.58333C11.0833 2.20262 9.96405 1.08333 8.58333 1.08333H3.58333C2.20262 1.08333 1.08333 2.20262 1.08333 3.58333V14.4167C1.08333 15.7974 2.20262 16.9167 3.58333 16.9167H8.58333C9.96405 16.9167 11.0833 15.7974 11.0833 14.4167V12.3333C11.0833 12.1032 11.2699 11.9167 11.5 11.9167C11.7301 11.9167 11.9167 12.1032 11.9167 12.3333V14.4167C11.9167 16.2576 10.4243 17.75 8.58333 17.75H3.58333C1.74238 17.75 0.25 16.2576 0.25 14.4167V3.58333C0.25 1.74238 1.74238 0.25 3.58333 0.25H8.58333C10.4243 0.25 11.9167 1.74238 11.9167 3.58333V5.66667C11.9167 5.89679 11.7301 6.08333 11.5 6.08333C11.2699 6.08333 11.0833 5.89679 11.0833 5.66667V3.58333Z" fill="#5C5F62"/>
<path d="M14.5387 11.7946C14.7014 11.9573 14.9652 11.9573 15.128 11.7946L17.628 9.29463C17.6679 9.25468 17.6981 9.20864 17.7184 9.15949C17.7388 9.11036 17.75 9.0565 17.75 9C17.75 8.99334 17.7498 8.98667 17.7495 8.98001C17.7473 8.93245 17.7369 8.88519 17.7184 8.84051C17.6981 8.79136 17.6679 8.74532 17.628 8.70537L15.128 6.20537C14.9652 6.04265 14.7014 6.04265 14.5387 6.20537C14.376 6.36809 14.376 6.63191 14.5387 6.79463L16.3274 8.58333L6.49975 8.58333C6.26963 8.58333 6.08308 8.76988 6.08308 9C6.08308 9.23012 6.26963 9.41667 6.49975 9.41667L16.3274 9.41667L14.5387 11.2054C14.376 11.3681 14.376 11.6319 14.5387 11.7946Z" fill="#5C5F62"/>
</svg>
