<svg width="135" height="46" viewBox="0 0 135 46" fill="none" xmlns="http://www.w3.org/2000/svg">
<path d="M54.9521 32.254V13.4619H58.356V29.401H66.6335V32.254H54.9521Z" fill="#0A0222"/>
<path d="M71.9351 32.5378C71.1082 32.5503 70.2881 32.3863 69.5296 32.0567C68.8422 31.7539 68.2574 31.2584 67.8457 30.6302C67.4149 29.9309 67.1998 29.1201 67.2275 28.2992C67.2015 27.6148 67.3532 26.9352 67.6677 26.3267C67.954 25.8136 68.3684 25.3835 68.8704 25.0782C69.4038 24.7518 69.9838 24.5085 70.5904 24.3566C71.2435 24.1923 71.9075 24.075 72.5774 24.0053C73.4017 23.9187 74.0712 23.8386 74.586 23.7648C74.9789 23.7321 75.3611 23.62 75.7094 23.4352C75.8259 23.3606 75.9201 23.256 75.9823 23.1324C76.0445 23.0088 76.0724 22.8708 76.063 22.7328V22.6775C76.081 22.3818 76.0356 22.0856 75.9298 21.8089C75.824 21.5322 75.6603 21.2813 75.4496 21.073C75.0383 20.6929 74.4489 20.5029 73.6767 20.5029C72.9947 20.4677 72.3196 20.6542 71.7523 21.0345C71.3097 21.3449 70.9737 21.7842 70.7901 22.2926L67.6869 21.8524C67.9003 21.0414 68.3138 20.297 68.8897 19.6874C69.4683 19.1005 70.1746 18.6551 70.9536 18.386C71.8215 18.0863 72.7346 17.939 73.6527 17.9506C74.3357 17.9519 75.0162 18.0326 75.6805 18.1911C76.3357 18.3432 76.9593 18.6086 77.5232 18.9753C78.0889 19.3483 78.5515 19.8579 78.8679 20.4572C79.2309 21.1824 79.4063 21.9872 79.3779 22.7978V32.2299H76.1833V30.2934H76.075C75.6066 31.1921 74.8149 31.8798 73.8595 32.2179C73.2426 32.4396 72.5906 32.548 71.9351 32.5378ZM72.7891 30.0986C73.3915 30.1124 73.9878 29.9751 74.5235 29.6993C74.9893 29.4534 75.3806 29.0871 75.6565 28.6384C75.9216 28.204 76.0599 27.704 76.0558 27.1951V25.5353C75.8963 25.6468 75.7177 25.7283 75.529 25.7758C75.2551 25.8543 74.9772 25.9185 74.6967 25.9683C74.3912 26.0236 74.0881 26.0717 73.7898 26.115L73.0104 26.2256C72.5548 26.2833 72.1076 26.3939 71.6777 26.5552C71.3201 26.686 71.0014 26.9053 70.7516 27.1927C70.4831 27.5635 70.3675 28.0234 70.4289 28.477C70.4902 28.9307 70.7238 29.3433 71.0811 29.6295C71.588 29.9592 72.1849 30.1231 72.7891 30.0986Z" fill="#0A0222"/>
<path d="M84.4998 23.9958V32.254H81.1777V13.4619H84.4252V20.5535H84.5912C84.9008 19.7843 85.4369 19.1274 86.1283 18.6699C86.8211 18.2081 87.7032 17.9771 88.7744 17.9771C89.6664 17.9557 90.5486 18.1671 91.3339 18.5905C92.0631 19.0077 92.6498 19.6347 93.0178 20.3899C93.4422 21.2915 93.6483 22.2804 93.6192 23.2765V32.2516H90.3164V23.7937C90.3164 22.8459 90.0758 22.1074 89.5947 21.5782C89.1136 21.049 88.4329 20.7844 87.5524 20.7844C87.0042 20.7753 86.4628 20.9061 85.9792 21.1645C85.5195 21.4172 85.1434 21.7984 84.8967 22.2614C84.6206 22.7969 84.4841 23.3935 84.4998 23.9958Z" fill="#0A0222"/>
<path d="M100.694 32.5018C99.6415 32.521 98.6069 32.228 97.7207 31.6599C96.8089 31.0468 96.0899 30.1876 95.6471 29.1821C95.1404 28.0996 94.887 26.7846 94.887 25.237C94.887 23.6895 95.1452 22.3664 95.6616 21.2679C96.1102 20.2666 96.8386 19.4162 97.7592 18.8191C98.6365 18.263 99.6552 17.9707 100.694 17.9771C101.397 17.95 102.096 18.0928 102.731 18.3933C103.218 18.6351 103.649 18.976 103.997 19.394C104.275 19.7332 104.517 20.1009 104.718 20.4909H104.856V13.4619H108.199V32.254H104.933V30.0337H104.733C104.527 30.4233 104.278 30.7881 103.99 31.121C103.631 31.5291 103.194 31.8612 102.705 32.0977C102.075 32.3875 101.387 32.5259 100.694 32.5018ZM101.62 29.7763C102.267 29.795 102.902 29.5932 103.419 29.2038C103.939 28.787 104.33 28.2315 104.548 27.6017C104.82 26.8295 104.95 26.0146 104.933 25.1962C104.95 24.3875 104.821 23.5823 104.552 22.8195C104.338 22.2002 103.949 21.6557 103.434 21.2511C102.893 20.8828 102.252 20.6874 101.598 20.6908C100.943 20.6943 100.305 20.8963 99.7678 21.2703C99.2511 21.6849 98.8631 22.2381 98.6492 22.8652C98.3858 23.6135 98.2579 24.4029 98.2716 25.1962C98.2586 25.9974 98.3872 26.7947 98.6516 27.5512C98.8699 28.1872 99.2615 28.7496 99.7823 29.1749C100.307 29.582 100.956 29.7945 101.62 29.7763Z" fill="#0A0222"/>
<path d="M114.256 32.5378C113.429 32.5503 112.609 32.3863 111.851 32.0567C111.164 31.7539 110.579 31.2584 110.167 30.6302C109.735 29.9314 109.52 29.1203 109.549 28.2992C109.523 27.6148 109.674 26.9352 109.989 26.3267C110.276 25.814 110.69 25.3839 111.192 25.0782C111.726 24.7518 112.307 24.5084 112.914 24.3566C113.566 24.1926 114.23 24.0752 114.899 24.0053C115.726 23.9187 116.395 23.8394 116.91 23.7648C117.303 23.7318 117.685 23.6197 118.033 23.4352C118.15 23.3606 118.244 23.256 118.306 23.1324C118.368 23.0088 118.396 22.8708 118.387 22.7328V22.6775C118.405 22.3815 118.359 22.0851 118.253 21.8083C118.147 21.5315 117.982 21.2808 117.771 21.073C117.362 20.6929 116.772 20.5029 116 20.5029C115.318 20.4677 114.643 20.6542 114.076 21.0345C113.633 21.3449 113.297 21.7842 113.114 22.2926L110.011 21.8524C110.224 21.0414 110.638 20.297 111.213 19.6874C111.792 19.1005 112.498 18.6551 113.277 18.386C114.145 18.0863 115.058 17.939 115.976 17.9506C116.659 17.9519 117.34 18.0326 118.004 18.1911C118.659 18.3432 119.283 18.6086 119.847 18.9753C120.413 19.3483 120.875 19.8579 121.192 20.4572C121.555 21.1824 121.73 21.9872 121.702 22.7978V32.2299H118.495V30.2934H118.387C117.918 31.1929 117.125 31.8807 116.169 32.2179C115.556 32.4385 114.908 32.5469 114.256 32.5378ZM115.127 30.0986C115.73 30.1124 116.326 29.9751 116.862 29.6993C117.327 29.4534 117.719 29.0871 117.995 28.6384C118.259 28.2035 118.397 27.7039 118.394 27.1951V25.5353C118.233 25.6462 118.054 25.7277 117.865 25.7758C117.592 25.8543 117.315 25.9185 117.035 25.9683C116.729 26.0236 116.426 26.0717 116.128 26.115L115.346 26.2256C114.891 26.2833 114.445 26.3939 114.016 26.5552C113.658 26.6853 113.339 26.9047 113.09 27.1927C112.821 27.5635 112.706 28.0234 112.767 28.477C112.828 28.9307 113.062 29.3433 113.419 29.6295C113.926 29.9595 114.523 30.1234 115.127 30.0986Z" fill="#0A0222"/>
<path d="M127.554 32.5378C126.727 32.5502 125.907 32.3861 125.148 32.0567C124.461 31.7538 123.876 31.2583 123.464 30.6302C123.034 29.9309 122.818 29.1201 122.846 28.2992C122.82 27.6147 122.972 26.9352 123.286 26.3266C123.573 25.8141 123.988 25.3841 124.489 25.0782C125.022 24.7517 125.602 24.5084 126.209 24.3565C126.862 24.1925 127.526 24.0751 128.196 24.0053C129.02 23.9187 129.69 23.8385 130.205 23.7647C130.598 23.7321 130.98 23.62 131.328 23.4352C131.445 23.3605 131.539 23.2559 131.601 23.1324C131.663 23.0088 131.691 22.8708 131.682 22.7328V22.6774C131.7 22.3817 131.654 22.0856 131.548 21.8088C131.443 21.5321 131.279 21.2812 131.068 21.0729C130.657 20.6929 130.068 20.5028 129.295 20.5028C128.613 20.4671 127.938 20.6537 127.371 21.0344C126.929 21.345 126.593 21.7843 126.409 22.2925L123.306 21.8668C123.518 21.0553 123.931 20.3106 124.508 19.7018C125.087 19.1149 125.793 18.6695 126.572 18.4004C127.44 18.1009 128.353 17.9536 129.271 17.965C129.954 17.9663 130.635 18.047 131.299 18.2055C131.955 18.3573 132.58 18.6227 133.144 18.9897C133.709 19.3634 134.17 19.873 134.487 20.4715C134.851 21.1963 135.027 22.0014 134.997 22.8121V32.2443H131.804V30.3078H131.694C131.225 31.2065 130.434 31.8942 129.478 32.2323C128.86 32.4492 128.208 32.5527 127.554 32.5378ZM128.415 30.0985C129.017 30.1129 129.614 29.9756 130.149 29.6992C130.616 29.4541 131.007 29.0876 131.282 28.6384C131.548 28.2039 131.686 27.704 131.682 27.195V25.5352C131.522 25.6467 131.344 25.7283 131.155 25.7758C130.882 25.8542 130.605 25.9185 130.325 25.9682C130.017 26.0235 129.714 26.0717 129.416 26.115L128.636 26.2256C128.181 26.283 127.735 26.3936 127.306 26.5552C126.947 26.6853 126.628 26.9047 126.377 27.1926C126.109 27.5635 125.993 28.0237 126.055 28.4776C126.117 28.9314 126.351 29.344 126.709 29.6295C127.215 29.9595 127.811 30.1235 128.415 30.0985Z" fill="#0A0222"/>
<path d="M33.7546 0.0341797H12.1769C5.45177 0.0341797 0 5.48595 0 12.211V33.7888C0 40.5139 5.45177 45.9656 12.1769 45.9656H33.7546C40.4797 45.9656 45.9315 40.5139 45.9315 33.7888V12.211C45.9315 5.48595 40.4797 0.0341797 33.7546 0.0341797Z" fill="#0A0222"/>
<path d="M15.2463 33.6179C14.4656 33.6007 13.6978 33.4162 12.9947 33.0766C9.43208 31.4673 9.85065 24.6572 12.0541 19.0836C13.9786 14.2027 16.7257 11.6986 19.2178 12.5453C20.7309 13.0601 21.4911 14.2941 21.4766 16.2138C21.4646 17.722 20.9955 19.4877 20.5144 21.3592C19.7374 24.3325 18.9364 27.3971 20.1536 28.9607C22.0761 27.365 24.2161 26.0512 26.509 25.0589C28.9988 23.9837 32.3521 23.4424 34.2284 24.6548C34.6488 24.9203 34.9936 25.2899 35.2292 25.7278C35.4647 26.1657 35.5832 26.657 35.5731 27.1542C35.5948 28.5975 34.2862 30.8852 31.8205 32.2491C29.896 33.31 25.8692 34.5272 20.168 30.9525L19.9804 31.1113C18.3879 32.468 17.036 33.6179 15.2463 33.6179ZM18.2412 13.9213C16.7281 13.9213 14.8734 16.1127 13.483 19.6489C11.5466 24.5514 11.1424 30.5556 13.6273 31.6766C15.7923 32.6532 16.7906 31.8089 18.9701 29.9542C17.2381 27.8253 18.1834 24.2098 19.0278 20.9695C20.0526 17.0461 20.5433 14.6189 18.7223 13.9934C18.5669 13.9432 18.4044 13.9188 18.2412 13.9213ZM21.4165 29.9133C25.0032 32.0254 28.4094 32.3814 31.0772 30.9068C33.028 29.8267 34.0504 28.0466 34.036 27.1782C34.0493 26.9342 33.9967 26.6911 33.8837 26.4743C33.7707 26.2576 33.6014 26.0753 33.3937 25.9466C32.2198 25.1864 29.5809 25.4077 27.1176 26.471C25.0683 27.3514 23.1499 28.5098 21.4165 29.9133Z" fill="white"/>
</svg>
