<svg width="135" height="47" viewBox="0 0 135 47" fill="none" xmlns="http://www.w3.org/2000/svg">
<path d="M54.9521 32.7541V13.962H58.356V29.9012H66.6335V32.7541H54.9521Z" fill="#5C4FFF"/>
<path d="M71.9351 33.0379C71.1082 33.0504 70.2881 32.8864 69.5296 32.5568C68.8422 32.254 68.2574 31.7585 67.8457 31.1303C67.4149 30.431 67.1998 29.6202 67.2275 28.7993C67.2015 28.1149 67.3532 27.4353 67.6677 26.8268C67.954 26.3137 68.3684 25.8836 68.8704 25.5783C69.4038 25.2519 69.9838 25.0086 70.5904 24.8567C71.2435 24.6925 71.9075 24.5751 72.5774 24.5054C73.4017 24.4188 74.0712 24.3387 74.586 24.2649C74.9789 24.2323 75.3611 24.1201 75.7094 23.9353C75.8259 23.8607 75.9201 23.7561 75.9823 23.6325C76.0445 23.5089 76.0724 23.3709 76.063 23.2329V23.1776C76.081 22.8819 76.0356 22.5857 75.9298 22.309C75.824 22.0323 75.6603 21.7814 75.4496 21.5731C75.0383 21.193 74.4489 21.003 73.6767 21.003C72.9947 20.9678 72.3196 21.1543 71.7523 21.5346C71.3097 21.845 70.9737 22.2843 70.7901 22.7927L67.6869 22.3525C67.9003 21.5415 68.3138 20.7971 68.8897 20.1875C69.4683 19.6006 70.1746 19.1552 70.9536 18.8861C71.8215 18.5864 72.7346 18.4391 73.6527 18.4507C74.3357 18.452 75.0162 18.5327 75.6805 18.6912C76.3357 18.8433 76.9593 19.1087 77.5232 19.4755C78.0889 19.8484 78.5515 20.3581 78.8679 20.9573C79.2309 21.6825 79.4063 22.4873 79.3779 23.2979V32.73H76.1833V30.7935H76.075C75.6066 31.6922 74.8149 32.3799 73.8595 32.718C73.2426 32.9397 72.5906 33.0481 71.9351 33.0379ZM72.7891 30.5987C73.3915 30.6125 73.9878 30.4752 74.5235 30.1994C74.9893 29.9535 75.3806 29.5872 75.6565 29.1385C75.9216 28.7041 76.0599 28.2041 76.0558 27.6952V26.0354C75.8963 26.1469 75.7177 26.2284 75.529 26.2759C75.2551 26.3544 74.9772 26.4186 74.6967 26.4684C74.3912 26.5237 74.0881 26.5718 73.7898 26.6151L73.0104 26.7258C72.5548 26.7834 72.1076 26.894 71.6777 27.0553C71.3201 27.1861 71.0014 27.4054 70.7516 27.6928C70.4831 28.0636 70.3675 28.5235 70.4289 28.9771C70.4902 29.4308 70.7238 29.8435 71.0811 30.1296C71.588 30.4593 72.1849 30.6232 72.7891 30.5987Z" fill="#5C4FFF"/>
<path d="M84.4998 24.4959V32.7541H81.1777V13.962H84.4252V21.0536H84.5912C84.9008 20.2844 85.4369 19.6275 86.1283 19.17C86.8211 18.7082 87.7032 18.4772 88.7744 18.4772C89.6664 18.4558 90.5486 18.6672 91.3339 19.0907C92.0631 19.5079 92.6498 20.1348 93.0178 20.89C93.4422 21.7916 93.6483 22.7805 93.6192 23.7766V32.7517H90.3164V24.2938C90.3164 23.3461 90.0758 22.6076 89.5947 22.0783C89.1136 21.5491 88.4329 21.2845 87.5524 21.2845C87.0042 21.2754 86.4628 21.4063 85.9792 21.6646C85.5195 21.9174 85.1434 22.2985 84.8967 22.7615C84.6206 23.2971 84.4841 23.8936 84.4998 24.4959Z" fill="#5C4FFF"/>
<path d="M100.694 33.0019C99.6412 33.0211 98.6066 32.7282 97.7205 32.16C96.8087 31.5469 96.0897 30.6878 95.6469 29.6823C95.1401 28.5998 94.8867 27.2847 94.8867 25.7372C94.8867 24.1896 95.1449 22.8665 95.6613 21.768C96.11 20.7667 96.8384 19.9163 97.7589 19.3192C98.6363 18.7631 99.655 18.4708 100.694 18.4772C101.396 18.4501 102.095 18.5929 102.731 18.8934C103.218 19.1352 103.649 19.4761 103.997 19.8941C104.275 20.2333 104.517 20.601 104.718 20.991H104.855V13.962H108.199V32.7541H104.932V30.5338H104.733C104.527 30.9234 104.278 31.2882 103.989 31.6211C103.631 32.0292 103.194 32.3613 102.705 32.5978C102.075 32.8876 101.386 33.026 100.694 33.0019ZM101.62 30.2764C102.267 30.2952 102.902 30.0933 103.419 29.7039C103.939 29.2871 104.33 28.7316 104.547 28.1018C104.819 27.3297 104.95 26.5147 104.932 25.6963C104.95 24.8876 104.821 24.0824 104.552 23.3196C104.338 22.7003 103.949 22.1558 103.434 21.7512C102.892 21.3829 102.252 21.1875 101.598 21.1909C100.943 21.1944 100.305 21.3964 99.7676 21.7704C99.2508 22.185 98.8628 22.7382 98.649 23.3653C98.3855 24.1137 98.2576 24.903 98.2713 25.6963C98.2583 26.4975 98.387 27.2948 98.6514 28.0513C98.8696 28.6873 99.2612 29.2497 99.782 29.675C100.307 30.0821 100.956 30.2946 101.62 30.2764Z" fill="#5C4FFF"/>
<path d="M114.256 33.0379C113.429 33.0504 112.609 32.8864 111.851 32.5568C111.164 32.254 110.579 31.7585 110.167 31.1303C109.735 30.4315 109.52 29.6204 109.549 28.7993C109.523 28.1149 109.674 27.4353 109.989 26.8268C110.276 26.3141 110.69 25.884 111.192 25.5783C111.726 25.2519 112.307 25.0085 112.914 24.8567C113.566 24.6927 114.23 24.5753 114.899 24.5054C115.726 24.4188 116.395 24.3395 116.91 24.2649C117.303 24.2319 117.685 24.1198 118.033 23.9353C118.15 23.8607 118.244 23.7561 118.306 23.6325C118.368 23.5089 118.396 23.3709 118.387 23.2329V23.1776C118.405 22.8816 118.359 22.5853 118.253 22.3084C118.147 22.0316 117.982 21.7809 117.771 21.5731C117.362 21.193 116.772 21.003 116 21.003C115.318 20.9678 114.643 21.1543 114.076 21.5346C113.633 21.845 113.297 22.2843 113.114 22.7927L110.011 22.3525C110.224 21.5415 110.638 20.7971 111.213 20.1875C111.792 19.6006 112.498 19.1552 113.277 18.8861C114.145 18.5864 115.058 18.4391 115.976 18.4507C116.659 18.452 117.34 18.5327 118.004 18.6912C118.659 18.8433 119.283 19.1087 119.847 19.4755C120.413 19.8484 120.875 20.3581 121.192 20.9573C121.555 21.6825 121.73 22.4873 121.702 23.2979V32.73H118.495V30.7935H118.387C117.918 31.693 117.125 32.3808 116.169 32.718C115.556 32.9386 114.908 33.047 114.256 33.0379ZM115.127 30.5987C115.73 30.6125 116.326 30.4752 116.862 30.1994C117.327 29.9535 117.719 29.5872 117.995 29.1385C118.259 28.7036 118.397 28.204 118.394 27.6952V26.0354C118.233 26.1463 118.054 26.2278 117.865 26.2759C117.592 26.3544 117.315 26.4186 117.035 26.4684C116.729 26.5237 116.426 26.5718 116.128 26.6151L115.346 26.7258C114.891 26.7834 114.445 26.894 114.016 27.0553C113.658 27.1854 113.339 27.4048 113.09 27.6928C112.821 28.0636 112.706 28.5235 112.767 28.9771C112.828 29.4308 113.062 29.8435 113.419 30.1296C113.926 30.4596 114.523 30.6235 115.127 30.5987Z" fill="#5C4FFF"/>
<path d="M127.554 33.0374C126.727 33.0498 125.907 32.8857 125.149 32.5563C124.461 32.2534 123.877 31.7579 123.465 31.1298C123.034 30.4305 122.819 29.6197 122.847 28.7988C122.821 28.1143 122.972 27.4348 123.287 26.8262C123.574 26.3137 123.988 25.8837 124.49 25.5778C125.023 25.2513 125.603 25.008 126.21 24.8561C126.863 24.6921 127.527 24.5747 128.197 24.5049C129.021 24.4183 129.69 24.3381 130.205 24.2643C130.598 24.2317 130.98 24.1196 131.329 23.9348C131.445 23.8601 131.539 23.7555 131.601 23.632C131.664 23.5084 131.692 23.3704 131.682 23.2324V23.177C131.7 22.8813 131.655 22.5852 131.549 22.3084C131.443 22.0317 131.279 21.7808 131.069 21.5725C130.657 21.1925 130.068 21.0024 129.296 21.0024C128.614 20.9667 127.938 21.1533 127.371 21.534C126.929 21.8447 126.593 22.2839 126.409 22.7921L123.306 22.3664C123.518 21.5549 123.932 20.8102 124.509 20.2014C125.087 19.6145 125.794 19.1691 126.573 18.9C127.441 18.6005 128.354 18.4532 129.272 18.4646C129.955 18.4659 130.635 18.5466 131.3 18.7051C131.956 18.8569 132.58 19.1223 133.145 19.4893C133.709 19.863 134.171 20.3726 134.487 20.9711C134.852 21.6959 135.027 22.501 134.997 23.3117V32.7439H131.805V30.8074H131.694C131.226 31.7061 130.434 32.3938 129.479 32.7319C128.861 32.9488 128.209 33.0523 127.554 33.0374ZM128.415 30.5981C129.018 30.6126 129.614 30.4752 130.15 30.1988C130.616 29.9537 131.008 29.5872 131.283 29.138C131.548 28.7035 131.686 28.2036 131.682 27.6946V26.0348C131.523 26.1463 131.344 26.2279 131.155 26.2754C130.882 26.3539 130.605 26.4181 130.325 26.4678C130.018 26.5232 129.714 26.5713 129.416 26.6146L128.637 26.7252C128.182 26.7826 127.735 26.8932 127.306 27.0548C126.948 27.1849 126.628 27.4043 126.378 27.6922C126.109 28.0631 125.994 28.5233 126.055 28.9772C126.117 29.431 126.352 29.8436 126.71 30.1291C127.216 30.4591 127.812 30.6231 128.415 30.5981Z" fill="#5C4FFF"/>
<path d="M33.7546 0.534271H12.1769C5.45177 0.534271 0 5.98604 0 12.7111V34.2889C0 41.014 5.45177 46.4657 12.1769 46.4657H33.7546C40.4797 46.4657 45.9315 41.014 45.9315 34.2889V12.7111C45.9315 5.98604 40.4797 0.534271 33.7546 0.534271Z" fill="#5C4FFF"/>
<path d="M15.246 34.1189C14.4654 34.1018 13.6976 33.9172 12.9944 33.5777C9.43183 31.9684 9.8504 25.1583 12.0539 19.5846C13.9783 14.7038 16.7254 12.1996 19.2176 13.0464C20.7307 13.5612 21.4908 14.7952 21.4764 16.7148C21.4644 18.2231 20.9953 19.9888 20.5142 21.8603C19.7372 24.8335 18.9361 27.8982 20.1533 29.4618C22.0758 27.8661 24.2158 26.5523 26.5088 25.56C28.9985 24.4847 32.3519 23.9435 34.2282 25.1559C34.6486 25.4214 34.9933 25.791 35.2289 26.2289C35.4645 26.6668 35.583 27.1581 35.5729 27.6552C35.5945 29.0986 34.2859 31.3862 31.8202 32.7502C29.8958 33.811 25.8689 35.0282 20.1678 31.4536L19.9801 31.6124C18.3877 32.9691 17.0358 34.1189 15.246 34.1189ZM18.2409 14.4223C16.7278 14.4223 14.8732 16.6138 13.4828 20.1499C11.5463 25.0524 11.1422 31.0567 13.6271 32.1777C15.7921 33.1543 16.7904 32.31 18.9698 30.4553C17.2378 28.3264 18.1832 24.7109 19.0275 21.4706C20.0523 17.5471 20.543 15.12 18.722 14.4945C18.5667 14.4443 18.4042 14.4199 18.2409 14.4223ZM21.4163 30.4144C25.0029 32.5265 28.4092 32.8825 31.0769 31.4079C33.0278 30.3278 34.0502 28.5477 34.0357 27.6793C34.0491 27.4353 33.9965 27.1921 33.8835 26.9754C33.7705 26.7587 33.6012 26.5764 33.3934 26.4477C32.2195 25.6875 29.5807 25.9088 27.1174 26.9721C25.0681 27.8525 23.1497 29.0108 21.4163 30.4144Z" fill="white"/>
</svg>
