<svg width="16" height="16" viewBox="0 0 16 16" fill="none" xmlns="http://www.w3.org/2000/svg">
<path fill-rule="evenodd" clip-rule="evenodd" d="M8.41875 2.43333L9.66875 3L9.10208 1.75L9.66875 0.5L8.41875 1.06667L7.16875 0.5L7.73542 1.75L7.16875 3L8.41875 2.43333ZM13.7354 2.96667L15.5021 2.16667L14.7021 3.93333L15.5021 5.7L13.7354 4.9L11.9688 5.7L12.7688 3.93333L11.9688 2.16667L13.7354 2.96667ZM7.31042 5.35833C8.22708 4.43333 9.71875 4.43333 10.6438 5.35833C11.5687 6.275 11.5687 7.76667 10.6438 8.69167L4.52708 14.8083C3.61042 15.7333 2.11875 15.7333 1.19375 14.8083C0.26875 13.8917 0.26875 12.4 1.19375 11.475L7.31042 5.35833ZM7.81042 9.75833L9.76875 7.8C10.2021 7.36667 10.2021 6.66667 9.76875 6.23333C9.33542 5.8 8.63542 5.8 8.20208 6.23333L6.24375 8.19167C5.81042 8.625 5.81042 9.325 6.24375 9.75833C6.67708 10.1917 7.37708 10.1917 7.81042 9.75833ZM10.5021 10.5L13.0021 11.6333L15.5021 10.5L14.3687 13L15.5021 15.5L13.0021 14.3667L10.5021 15.5L11.6354 13L10.5021 10.5Z" fill="#5C5F62"/>
</svg>
