<svg width="18" height="18" viewBox="0 0 18 18" fill="none" xmlns="http://www.w3.org/2000/svg">
<path fill-rule="evenodd" clip-rule="evenodd" d="M5.45817 0.666672C5.45817 0.321494 5.17835 0.0416718 4.83317 0.0416718C4.48799 0.0416718 4.20817 0.321494 4.20817 0.666672V1.29167H3.58317C1.62716 1.29167 0.0415039 2.87733 0.0415039 4.83334V13.5833C0.0415039 15.5393 1.62716 17.125 3.58317 17.125H7.33317C7.67835 17.125 7.95817 16.8452 7.95817 16.5C7.95817 16.1548 7.67835 15.875 7.33317 15.875H3.58317C2.31752 15.875 1.2915 14.849 1.2915 13.5833V6.70834H15.0415V7.33334C15.0415 7.67852 15.3213 7.95834 15.6665 7.95834C16.0117 7.95834 16.2915 7.67852 16.2915 7.33334V4.83334C16.2915 2.87733 14.7058 1.29167 12.7498 1.29167H12.1248V0.666672C12.1248 0.321494 11.845 0.0416718 11.4998 0.0416718C11.1547 0.0416718 10.8748 0.321494 10.8748 0.666672V1.29167H5.45817V0.666672ZM15.0415 5.45834H1.2915V4.83334C1.2915 3.56769 2.31752 2.54167 3.58317 2.54167H4.20817V3.16667C4.20817 3.51185 4.48799 3.79167 4.83317 3.79167C5.17835 3.79167 5.45817 3.51185 5.45817 3.16667V2.54167H10.8748V3.16667C10.8748 3.51185 11.1547 3.79167 11.4998 3.79167C11.845 3.79167 12.1248 3.51185 12.1248 3.16667V2.54167H12.7498C14.0155 2.54167 15.0415 3.56769 15.0415 4.83334V5.45834Z" fill="#5C5F62"/>
<path d="M3.99984 9.83334C3.99984 9.3731 4.37293 9.00001 4.83317 9.00001C5.29341 9.00001 5.6665 9.3731 5.6665 9.83334C5.6665 10.2936 5.29341 10.6667 4.83317 10.6667C4.37293 10.6667 3.99984 10.2936 3.99984 9.83334Z" fill="#5C5F62"/>
<path d="M7.33317 9.83334C7.33317 9.3731 7.70627 9.00001 8.1665 9.00001C8.62674 9.00001 8.99984 9.3731 8.99984 9.83334C8.99984 10.2936 8.62674 10.6667 8.1665 10.6667C7.70627 10.6667 7.33317 10.2936 7.33317 9.83334Z" fill="#5C5F62"/>
<path d="M3.99984 12.75C3.99984 12.2898 4.37293 11.9167 4.83317 11.9167C5.29341 11.9167 5.6665 12.2898 5.6665 12.75C5.6665 13.2102 5.29341 13.5833 4.83317 13.5833C4.37293 13.5833 3.99984 13.2102 3.99984 12.75Z" fill="#5C5F62"/>
<path d="M13.7915 11.7083C14.1367 11.7083 14.4165 11.9882 14.4165 12.3333V13.375H15.4582C15.8033 13.375 16.0832 13.6548 16.0832 14C16.0832 14.3452 15.8033 14.625 15.4582 14.625H13.7915C13.4463 14.625 13.1665 14.3452 13.1665 14V12.3333C13.1665 11.9882 13.4463 11.7083 13.7915 11.7083Z" fill="#5C5F62"/>
<path fill-rule="evenodd" clip-rule="evenodd" d="M9.62484 13.7917C9.62484 11.4905 11.4903 9.62501 13.7915 9.62501C16.0927 9.62501 17.9582 11.4905 17.9582 13.7917C17.9582 16.0929 16.0927 17.9583 13.7915 17.9583C11.4903 17.9583 9.62484 16.0929 9.62484 13.7917ZM13.7915 10.875C12.1807 10.875 10.8748 12.1808 10.8748 13.7917C10.8748 15.4025 12.1807 16.7083 13.7915 16.7083C15.4023 16.7083 16.7082 15.4025 16.7082 13.7917C16.7082 12.1808 15.4023 10.875 13.7915 10.875Z" fill="#5C5F62"/>
</svg>
