<svg width="18" height="18" viewBox="0 0 18 18" fill="none" xmlns="http://www.w3.org/2000/svg">
<path fill-rule="evenodd" clip-rule="evenodd" d="M8.99994 6.09758C7.38911 6.09758 6.08327 7.40341 6.08327 9.01424C6.08327 10.6251 7.38911 11.9309 8.99994 11.9309C10.6108 11.9309 11.9166 10.6251 11.9166 9.01424C11.9166 7.40341 10.6108 6.09758 8.99994 6.09758ZM6.91661 9.01424C6.91661 7.86365 7.84935 6.93091 8.99994 6.93091C10.1505 6.93091 11.0833 7.86365 11.0833 9.01424C11.0833 10.1648 10.1505 11.0976 8.99994 11.0976C7.84935 11.0976 6.91661 10.1648 6.91661 9.01424Z" fill="#5C5F62"/>
<path fill-rule="evenodd" clip-rule="evenodd" d="M1.60621 9.90821C0.707327 10.4281 0.399914 11.5789 0.918433 12.4786L1.9513 14.2708C2.47006 15.1709 3.61965 15.4799 4.51895 14.9597C5.21516 14.557 6.08768 15.0596 6.08768 15.868C6.08768 16.9067 6.92839 17.75 7.96703 17.75H10.0327C11.0714 17.75 11.9121 16.9067 11.9121 15.868C11.9121 15.0596 12.7846 14.557 13.4808 14.9596C14.3801 15.4798 15.5297 15.1708 16.0485 14.2707L17.0814 12.4784C17.5999 11.5788 17.2925 10.428 16.3936 9.90815C15.6959 9.50463 15.6959 8.49517 16.3936 8.09164C17.2925 7.57177 17.5999 6.42102 17.0814 5.52135L16.0485 3.72912C15.5297 2.829 14.3801 2.52004 13.4808 3.04017C12.7846 3.44285 11.9121 2.94026 11.9121 2.13192C11.9121 1.09326 11.0714 0.25 10.0328 0.25H7.96695C6.92836 0.25 6.08767 1.09325 6.08767 2.13189C6.08767 2.94018 5.21519 3.44277 4.51898 3.04009C3.61969 2.51996 2.47006 2.8289 1.9513 3.72903L0.918432 5.5212C0.399914 6.4209 0.707327 7.57169 1.60621 8.09159C2.30394 8.49514 2.30394 9.50466 1.60621 9.90821ZM1.64044 12.0625C1.35113 11.5605 1.52312 10.9189 2.02343 10.6296C3.27597 9.90513 3.27597 8.09466 2.02343 7.37022C1.52312 7.08085 1.35113 6.4393 1.64044 5.93731L2.67331 4.14514C2.96235 3.64362 3.60189 3.47234 4.10176 3.76146C5.3557 4.48672 6.92101 3.57945 6.92101 2.13189C6.92101 1.55209 7.39 1.08333 7.96695 1.08333L10.0328 1.08333C10.6098 1.08333 11.0788 1.5521 11.0788 2.13192C11.0788 3.57948 12.6441 4.48682 13.898 3.76154C14.3979 3.47243 15.0374 3.6437 15.3265 4.14523L16.3594 5.93746C16.6486 6.43941 16.4767 7.08092 15.9764 7.37028C14.7239 8.0947 14.7239 9.9051 15.9764 10.6295C16.4767 10.9189 16.6486 11.5604 16.3594 12.0623L15.3265 13.8546C15.0374 14.3561 14.3979 14.5274 13.898 14.2383C12.644 13.513 11.0788 14.4204 11.0788 15.868C11.0788 16.4478 10.6097 16.9167 10.0327 16.9167H7.96703C7.39003 16.9167 6.92101 16.4479 6.92101 15.868C6.92101 14.4205 5.35574 13.5131 4.10173 14.2384C3.60187 14.5275 2.96235 14.3562 2.67331 13.8547L1.64044 12.0625Z" fill="#5C5F62"/>
</svg>
