<svg width="18" height="18" viewBox="0 0 18 18" fill="none" xmlns="http://www.w3.org/2000/svg">
<path fill-rule="evenodd" clip-rule="evenodd" d="M17.7999 5.2975L16.189 4.8375C14.7082 4.4175 13.5775 3.2775 13.1473 1.7975L12.687 0.1875C12.617 -0.0625 12.1968 -0.0625 12.1167 0.1875L11.6565 1.7975C11.2362 3.2775 10.0956 4.4175 8.61478 4.8375L7.00389 5.2975C6.87381 5.3375 6.79377 5.4475 6.79377 5.5775C6.79377 5.7075 6.88382 5.8275 7.00389 5.8575L8.61478 6.3175C10.0956 6.7375 11.2262 7.8775 11.6565 9.3575L12.1167 10.9675C12.1568 11.0975 12.2668 11.1775 12.3969 11.1775C12.527 11.1775 12.647 11.0875 12.677 10.9675L13.1373 9.3575C13.5575 7.8775 14.6982 6.7375 16.179 6.3175L17.7899 5.8575C17.92 5.8175 18 5.7075 18 5.5775C18 5.4475 17.91 5.3275 17.7899 5.2975H17.7999ZM9.95553 13.5475L8.73485 13.1975C7.61423 12.8775 6.75375 12.0175 6.43357 10.8975L6.08338 9.6775C6.03335 9.4875 5.71317 9.4875 5.65314 9.6775L5.30294 10.8975C4.98277 12.0175 4.12229 12.8775 3.00166 13.1975L1.78099 13.5475C1.68093 13.5775 1.6209 13.6675 1.6209 13.7575C1.6209 13.8475 1.69094 13.9475 1.78099 13.9675L3.00166 14.3175C4.12229 14.6375 4.98277 15.4975 5.30294 16.6175L5.65314 17.8375C5.68315 17.9375 5.7632 17.9975 5.86325 17.9975C5.96331 17.9975 6.05336 17.9275 6.07337 17.8375L6.42357 16.6175C6.74374 15.4975 7.60422 14.6375 8.72485 14.3175L9.94552 13.9675C10.0456 13.9375 10.1056 13.8575 10.1056 13.7575C10.1056 13.6575 10.0356 13.5675 9.94552 13.5475H9.95553ZM3.13174 7.4575L2.86159 6.5075H2.8716C2.62146 5.6375 1.95108 4.9675 1.0806 4.7175L0.130072 4.4475C0.0500278 4.4275 0 4.3575 0 4.2775C0 4.1975 0.0600334 4.1275 0.130072 4.1075L1.0806 3.8375C1.95108 3.5875 2.62146 2.9175 2.8716 2.0475L3.14175 1.0975C3.18177 0.947501 3.43191 0.947501 3.47193 1.0975L3.74208 2.0475C3.99222 2.9175 4.66259 3.5875 5.53308 3.8375L6.4836 4.1075C6.56365 4.1275 6.61368 4.1975 6.61368 4.2775C6.61368 4.3575 6.55364 4.4275 6.4836 4.4475L5.53308 4.7175C4.66259 4.9675 3.99222 5.6375 3.74208 6.5075L3.47193 7.4575C3.45192 7.5375 3.38188 7.5875 3.30184 7.5875C3.22179 7.5875 3.15175 7.5275 3.13174 7.4575Z" fill="#F9F9F9"/>
</svg>
