<svg width="18" height="18" viewBox="0 0 18 18" fill="none" xmlns="http://www.w3.org/2000/svg">
<path d="M6.49984 2.12499C6.84502 2.12499 7.12484 2.40481 7.12484 2.74999L7.12484 15.25C7.12484 15.5952 6.84502 15.875 6.49984 15.875C6.15466 15.875 5.87484 15.5952 5.87484 15.25L5.87484 2.74999C5.87484 2.40481 6.15466 2.12499 6.49984 2.12499Z" fill="#5C5F62"/>
<path d="M10.0415 13.1667C10.0415 12.8215 10.3213 12.5417 10.6665 12.5417H13.1665C13.5117 12.5417 13.7915 12.8215 13.7915 13.1667C13.7915 13.5118 13.5117 13.7917 13.1665 13.7917H10.6665C10.3213 13.7917 10.0415 13.5118 10.0415 13.1667Z" fill="#5C5F62"/>
<path fill-rule="evenodd" clip-rule="evenodd" d="M9.83317 3.37499C9.02776 3.37499 8.37484 4.02791 8.37484 4.83332V6.49999C8.37484 7.30541 9.02776 7.95832 9.83317 7.95832H13.9998C14.8053 7.95832 15.4582 7.30541 15.4582 6.49999V4.83332C15.4582 4.02791 14.8053 3.37499 13.9998 3.37499H9.83317ZM9.62484 4.83332C9.62484 4.71826 9.71811 4.62499 9.83317 4.62499H13.9998C14.1149 4.62499 14.2082 4.71826 14.2082 4.83332V6.49999C14.2082 6.61505 14.1149 6.70832 13.9998 6.70832H9.83317C9.71811 6.70832 9.62484 6.61505 9.62484 6.49999V4.83332Z" fill="#5C5F62"/>
<path fill-rule="evenodd" clip-rule="evenodd" d="M1.70817 3.58332C1.70817 1.62731 3.29383 0.0416565 5.24984 0.0416565H14.4165C16.3725 0.0416565 17.9582 1.62731 17.9582 3.58332V14.4167C17.9582 16.3727 16.3725 17.9583 14.4165 17.9583H5.24984C3.29383 17.9583 1.70817 16.3727 1.70817 14.4167V13.7917H0.666504C0.321326 13.7917 0.0415039 13.5118 0.0415039 13.1667C0.0415039 12.8215 0.321326 12.5417 0.666504 12.5417H1.70817V9.62499H0.666504C0.321326 9.62499 0.0415039 9.34517 0.0415039 8.99999C0.0415039 8.65481 0.321326 8.37499 0.666504 8.37499H1.70817V5.45832H0.666504C0.321326 5.45832 0.0415039 5.1785 0.0415039 4.83332C0.0415039 4.48815 0.321326 4.20832 0.666504 4.20832H1.70817V3.58332ZM2.95817 14.4167C2.95817 15.6823 3.98418 16.7083 5.24984 16.7083H14.4165C15.6822 16.7083 16.7082 15.6823 16.7082 14.4167V3.58332C16.7082 2.31767 15.6822 1.29166 14.4165 1.29166H5.24984C3.98419 1.29166 2.95817 2.31767 2.95817 3.58332V14.4167Z" fill="#5C5F62"/>
</svg>
